<svg xmlns="http://www.w3.org/2000/svg" width="116.177" height="132.358" viewBox="0 0 116.177 132.358">
  <g id="Group_2381" data-name="Group 2381" transform="matrix(0.695, -0.719, 0.719, 0.695, -1822.462, -622.323)">
    <g id="Group_405" data-name="Group 405" transform="translate(774.734 1836.931)">
      <g id="Group_188" data-name="Group 188" transform="translate(16.138 16.644)">
        <g id="Group_187" data-name="Group 187">
          <g id="Group_186" data-name="Group 186">
            <g id="Group_185" data-name="Group 185">
              <path id="Path_104" data-name="Path 104" d="M166.988,317.068a6.912,6.912,0,0,0-2.162.677,9.1,9.1,0,0,0-4.308,4.361,9.221,9.221,0,0,0-.88,4.213,9.381,9.381,0,0,0,1.449,4.722,9.362,9.362,0,0,0,4.138,3.555,9.332,9.332,0,0,0,10.844-2.432,9.369,9.369,0,0,0,2.224-4.982,9.373,9.373,0,0,0-.707-4.89,9.233,9.233,0,0,0-2.595-3.433,9.116,9.116,0,0,0-5.758-2.1,6.962,6.962,0,0,0-2.244.312c.01.065.8-.159,2.238-.107a9.114,9.114,0,0,1,5.525,2.182,8.928,8.928,0,0,1,3.061,7.977,8.944,8.944,0,0,1-2.13,4.706,8.86,8.86,0,0,1-10.251,2.3,8.938,8.938,0,0,1-3.936-3.345,8.938,8.938,0,0,1-.641-8.519,9.118,9.118,0,0,1,4.064-4.333C166.2,317.266,167.007,317.131,166.988,317.068Z" transform="translate(-159.632 -316.756)" fill="#263238"/>
            </g>
          </g>
        </g>
      </g>
      <g id="Group_192" data-name="Group 192" transform="translate(0)">
        <g id="Group_191" data-name="Group 191">
          <g id="Group_190" data-name="Group 190">
            <g id="Group_189" data-name="Group 189">
              <path id="Path_105" data-name="Path 105" d="M164.069,312.393a2.089,2.089,0,0,0,.02-.322c0-.24.013-.56.022-.974.013-.895.03-2.182.053-3.855l-.065.081,8.329-1.817-.15-.072,2.191,4.66.039.084.094,0a20.857,20.857,0,0,1,5.429.964l.1.032.074-.074c1.142-1.13,2.377-2.354,3.663-3.625l-.232.025,7.189,4.579-.084-.244c-.537,1.5-1.13,3.155-1.738,4.851l-.043.124.089.1a20.819,20.819,0,0,1,3.159,4.5l.062.121h.139c1.6,0,3.357.012,5.149.017l-.228-.182c.583,2.612,1.211,5.431,1.856,8.32l.133-.274-4.653,2.205-.137.063-.006.151a20.777,20.777,0,0,1-.947,5.408l-.046.147.11.11,3.633,3.653-.035-.319-4.565,7.2.307-.105-4.854-1.73-.15-.052-.117.107a20.625,20.625,0,0,1-4.481,3.158h0c-.063.1.14-.232-.143.232v1.292l0,1.29q0,1.29,0,2.569l.2-.255-8.319,1.867.292.141-2.211-4.652-.068-.14-.154-.006a20.662,20.662,0,0,1-5.409-.938l-.147-.046-.11.108q-1.851,1.847-3.648,3.638l.31-.035-7.2-4.555.1.286q.877-2.472,1.722-4.856l.049-.136-.1-.1a20.716,20.716,0,0,1-3.172-4.487l-.064-.123h-.137l-5.149,0,.212.17c-.662-2.924-1.289-5.685-1.883-8.314l-.11.227,4.647-2.221.1-.049,0-.114a20.783,20.783,0,0,1,.931-5.431l.03-.1-.074-.074c-1.325-1.323-2.518-2.514-3.647-3.64l.022.193,4.53-7.222-.139.048,4.864,1.7.049.017.038-.035a21.7,21.7,0,0,1,3.308-2.549l.886-.534a2.383,2.383,0,0,0,.292-.179,2.216,2.216,0,0,0-.313.141c-.2.1-.511.263-.909.5a20.24,20.24,0,0,0-3.379,2.5l.087-.017-4.843-1.759-.088-.032-.05.079-4.594,7.181-.066.1.088.088,3.622,3.663-.042-.173a21.056,21.056,0,0,0-.978,5.52l.108-.163-4.659,2.2-.144.069.035.156c.584,2.631,1.2,5.395,1.85,8.322l.038.17h.175c1.673.007,3.384.014,5.149.02l-.2-.121a21.17,21.17,0,0,0,3.23,4.6l-.049-.238q-.851,2.381-1.733,4.851l-.065.182.163.1,7.2,4.569.167.107.143-.141,3.654-3.631-.255.062a21.182,21.182,0,0,0,5.542.967l-.222-.147q1.091,2.306,2.207,4.654l.088.188.2-.046,8.319-1.863.2-.045v-.211l.006-2.567,0-1.292v-1.29c-.283.463-.078.128-.141.231h0a21.182,21.182,0,0,0,4.6-3.239l-.266.055,4.855,1.726.2.071.111-.176,4.559-7.2.11-.175-.144-.144L194,337.14l.062.255a21.252,21.252,0,0,0,.96-5.54l-.141.215c1.611-.768,3.2-1.526,4.65-2.214l.176-.085-.043-.189c-.651-2.888-1.286-5.7-1.876-8.316l-.04-.183h-.186l-5.151,0,.2.121a21.155,21.155,0,0,0-3.243-4.587l.045.221c.6-1.7,1.188-3.354,1.719-4.858l.055-.156-.139-.088-7.21-4.546-.127-.079-.105.105c-1.279,1.279-2.507,2.51-3.641,3.646l.173-.042a21.073,21.073,0,0,0-5.522-.942l.133.088-2.227-4.643-.046-.1-.1.023-8.306,1.914-.066.016v.066c.016,1.657.027,2.934.036,3.82.007.42.013.745.017.987A2.551,2.551,0,0,0,164.069,312.393Z" transform="translate(-147.908 -305.223)" fill="#263238"/>
            </g>
          </g>
        </g>
      </g>
    </g>
    <g id="Group_406" data-name="Group 406" transform="translate(788.99 1771.601)">
      <g id="Group_196" data-name="Group 196" transform="translate(0)">
        <g id="Group_195" data-name="Group 195">
          <g id="Group_194" data-name="Group 194">
            <path id="Path_106" data-name="Path 106" d="M152.246,267.713a23.134,23.134,0,0,0-5.022,3.537l-5.366-1.911-5.043,7.961,4.018,4.037a23.094,23.094,0,0,0-1.054,6.054l-5.144,2.442,2.062,9.195,5.693.013a23.027,23.027,0,0,0,3.54,5.022l-1.911,5.367,7.959,5.043,4.037-4.018a23.09,23.09,0,0,0,6.054,1.052l2.442,5.144,9.2-2.062.012-5.694a23.018,23.018,0,0,0,5.022-3.539l5.367,1.911,5.044-7.961-4.021-4.037a23.144,23.144,0,0,0,1.055-6.053l5.142-2.442-2.062-9.2-5.693-.013a23.055,23.055,0,0,0-3.539-5.022l1.911-5.366-7.961-5.044-4.037,4.019A23.084,23.084,0,0,0,163.9,265.1l-2.442-5.144-9.2,2.062-.013,5.695Zm8.108,10.82a10.109,10.109,0,1,1-7.652,12.078A10.11,10.11,0,0,1,160.354,278.533Z" transform="translate(-134.636 -259.956)" fill="#e8505b" fill-rule="evenodd"/>
          </g>
        </g>
      </g>
      <g id="Group_199" data-name="Group 199" transform="translate(0)" opacity="0.8">
        <g id="Group_198" data-name="Group 198">
          <g id="Group_197" data-name="Group 197">
            <path id="Path_107" data-name="Path 107" d="M152.246,267.713a23.134,23.134,0,0,0-5.022,3.537l-5.366-1.911-5.043,7.961,4.018,4.037a23.094,23.094,0,0,0-1.054,6.054l-5.144,2.442,2.062,9.195,5.693.013a23.027,23.027,0,0,0,3.54,5.022l-1.911,5.367,7.959,5.043,4.037-4.018a23.09,23.09,0,0,0,6.054,1.052l2.442,5.144,9.2-2.062.012-5.694a23.018,23.018,0,0,0,5.022-3.539l5.367,1.911,5.044-7.961-4.021-4.037a23.144,23.144,0,0,0,1.055-6.053l5.142-2.442-2.062-9.2-5.693-.013a23.055,23.055,0,0,0-3.539-5.022l1.911-5.366-7.961-5.044-4.037,4.019A23.084,23.084,0,0,0,163.9,265.1l-2.442-5.144-9.2,2.062-.013,5.695Zm8.108,10.82a10.109,10.109,0,1,1-7.652,12.078A10.11,10.11,0,0,1,160.354,278.533Z" transform="translate(-134.636 -259.956)" fill="#fff" fill-rule="evenodd"/>
          </g>
        </g>
      </g>
    </g>
    <g id="Group_407" data-name="Group 407" transform="translate(829.601 1829.013)">
      <g id="Group_203" data-name="Group 203" transform="translate(0)">
        <g id="Group_202" data-name="Group 202">
          <g id="Group_201" data-name="Group 201">
            <path id="Path_108" data-name="Path 108" d="M133.164,304.251a13.492,13.492,0,0,0-2.924,2.06l-3.123-1.111-2.935,4.634,2.339,2.35a13.448,13.448,0,0,0-.615,3.523l-2.993,1.423,1.2,5.353,3.315.007a13.408,13.408,0,0,0,2.059,2.924l-1.113,3.123,4.634,2.937,2.35-2.339a13.465,13.465,0,0,0,3.524.613l1.422,2.993,5.354-1.2.006-3.314a13.411,13.411,0,0,0,2.924-2.061l3.125,1.113,2.935-4.634-2.339-2.35a13.456,13.456,0,0,0,.613-3.524l2.993-1.422-1.2-5.353-3.315-.007a13.4,13.4,0,0,0-2.059-2.924l1.111-3.125L145.821,301l-2.351,2.339a13.449,13.449,0,0,0-3.523-.613l-1.423-2.993-5.351,1.2-.009,3.314Zm4.719,6.3a5.885,5.885,0,1,1-4.454,7.03A5.886,5.886,0,0,1,137.883,310.551Z" transform="translate(-122.913 -299.737)" fill="#e8505b" fill-rule="evenodd"/>
          </g>
        </g>
      </g>
      <g id="Group_206" data-name="Group 206" transform="translate(0)" opacity="0.4">
        <g id="Group_205" data-name="Group 205">
          <g id="Group_204" data-name="Group 204">
            <path id="Path_109" data-name="Path 109" d="M133.164,304.251a13.492,13.492,0,0,0-2.924,2.06l-3.123-1.111-2.935,4.634,2.339,2.35a13.448,13.448,0,0,0-.615,3.523l-2.993,1.423,1.2,5.353,3.315.007a13.408,13.408,0,0,0,2.059,2.924l-1.113,3.123,4.634,2.937,2.35-2.339a13.465,13.465,0,0,0,3.524.613l1.422,2.993,5.354-1.2.006-3.314a13.411,13.411,0,0,0,2.924-2.061l3.125,1.113,2.935-4.634-2.339-2.35a13.456,13.456,0,0,0,.613-3.524l2.993-1.422-1.2-5.353-3.315-.007a13.4,13.4,0,0,0-2.059-2.924l1.111-3.125L145.821,301l-2.351,2.339a13.449,13.449,0,0,0-3.523-.613l-1.423-2.993-5.351,1.2-.009,3.314Zm4.719,6.3a5.885,5.885,0,1,1-4.454,7.03A5.886,5.886,0,0,1,137.883,310.551Z" transform="translate(-122.913 -299.737)" fill="#fff" fill-rule="evenodd"/>
          </g>
        </g>
      </g>
    </g>
  </g>
</svg>
