<svg id="Group_3039" data-name="Group 3039" xmlns="http://www.w3.org/2000/svg" width="801.891" height="610.994" viewBox="0 0 801.891 610.994">
  <g id="Group_387" data-name="Group 387" transform="translate(349.713)">
    <g id="Group_378" data-name="Group 378" transform="translate(86.985)">
      <path id="Path_212" data-name="Path 212" d="M1411.142,264.611a127.668,127.668,0,0,1-.8-14.191c0-2.532.083-5.044.23-7.54l23.449-7.587a103.084,103.084,0,0,1,8.3-28.1l-15.548-19.133a126.7,126.7,0,0,1,12.317-17.9l23.453,7.653a104.2,104.2,0,0,1,23.217-17.846l-1.334-24.64a125.456,125.456,0,0,1,20.473-7.256l14.482,19.985a104.27,104.27,0,0,1,29.277-.767l13.408-20.724a125.406,125.406,0,0,1,20.83,6.155l-.03,24.677a104.045,104.045,0,0,1,24.129,16.6l23.008-8.877a126.83,126.83,0,0,1,13.25,17.228l-14.519,19.932a103.085,103.085,0,0,1,9.789,27.616l23.815,6.337a127.74,127.74,0,0,1,.8,14.192c0,2.532-.083,5.044-.23,7.539l-23.449,7.587a103.083,103.083,0,0,1-8.3,28.1l15.548,19.133a126.66,126.66,0,0,1-12.316,17.9l-23.453-7.652a104.193,104.193,0,0,1-23.217,17.846l1.334,24.64a125.453,125.453,0,0,1-20.473,7.256L1554.1,352.785a104.27,104.27,0,0,1-29.276.767l-13.408,20.724a125.4,125.4,0,0,1-20.83-6.156l.031-24.677a104.019,104.019,0,0,1-24.129-16.6l-23.008,8.877a126.883,126.883,0,0,1-13.25-17.227l14.521-19.933a103.054,103.054,0,0,1-9.789-27.615ZM1536.741,300a49.576,49.576,0,1,0-49.575-49.575A49.575,49.575,0,0,0,1536.741,300Z" transform="translate(-1410.344 -126.563)" fill="#f5f5f5"/>
      <g id="Group_375" data-name="Group 375" transform="translate(37.177 94.12)">
        <path id="Path_213" data-name="Path 213" d="M1950.477,466.815a1.853,1.853,0,0,0,1.424-3.038,83.872,83.872,0,0,1-14.778-80.783,1.853,1.853,0,0,0-3.5-1.207,87.579,87.579,0,0,0,15.432,84.36A1.849,1.849,0,0,0,1950.477,466.815Z" transform="translate(-1928.874 -380.537)" fill="#fff"/>
      </g>
      <g id="Group_376" data-name="Group 376" transform="translate(64.105 41.528)">
        <path id="Path_214" data-name="Path 214" d="M1831.852,260.481a1.847,1.847,0,0,0,1.27-.5,83.241,83.241,0,0,1,28.825-17.76,1.853,1.853,0,0,0-1.263-3.484,86.934,86.934,0,0,0-30.1,18.546,1.853,1.853,0,0,0,1.271,3.2Z" transform="translate(-1829.999 -238.622)" fill="#fff"/>
      </g>
      <g id="Group_377" data-name="Group 377" transform="translate(122.76 36.421)">
        <path id="Path_215" data-name="Path 215" d="M1717.4,231.146a1.853,1.853,0,0,0,.452-3.65,87.783,87.783,0,0,0-21.465-2.655,1.853,1.853,0,1,0,0,3.706,84.058,84.058,0,0,1,20.558,2.542A1.868,1.868,0,0,0,1717.4,231.146Z" transform="translate(-1694.53 -224.841)" fill="#fff"/>
      </g>
    </g>
    <g id="Group_386" data-name="Group 386" transform="translate(277.083 194.36)">
      <path id="Path_220" data-name="Path 220" d="M544.705,1183.713a88.488,88.488,0,0,1-.552-9.829c0-1.754.057-3.494.159-5.223l16.242-5.255a71.4,71.4,0,0,1,5.751-19.46l-10.77-13.252a87.782,87.782,0,0,1,8.531-12.4l16.244,5.3a72.189,72.189,0,0,1,16.081-12.361l-.924-17.066a86.936,86.936,0,0,1,14.18-5.026l10.031,13.842a72.262,72.262,0,0,1,20.278-.531l9.287-14.354a86.84,86.84,0,0,1,14.428,4.264l-.021,17.092a72.055,72.055,0,0,1,16.713,11.5L696.3,1114.8a87.869,87.869,0,0,1,9.178,11.933l-10.057,13.806a71.391,71.391,0,0,1,6.78,19.128l16.5,4.39a88.377,88.377,0,0,1,.552,9.829c0,1.754-.057,3.494-.159,5.222l-16.242,5.255a71.368,71.368,0,0,1-5.751,19.461l10.77,13.253a87.753,87.753,0,0,1-8.531,12.4l-16.244-5.3a72.177,72.177,0,0,1-16.081,12.361l.924,17.067a86.9,86.9,0,0,1-14.18,5.025l-10.031-13.843a72.184,72.184,0,0,1-20.278.532l-9.286,14.354a86.859,86.859,0,0,1-14.428-4.264l.021-17.092a72.073,72.073,0,0,1-16.713-11.5l-15.936,6.149a87.854,87.854,0,0,1-9.178-11.933l10.057-13.806a71.387,71.387,0,0,1-6.78-19.128Zm87,24.509a34.338,34.338,0,1,0-34.338-34.338A34.338,34.338,0,0,0,631.7,1208.221Z" transform="translate(-544.153 -1088.095)" fill="#f5f5f5"/>
      <g id="Group_383" data-name="Group 383" transform="translate(25.18 64.622)">
        <path id="Path_221" data-name="Path 221" d="M917.3,1323.371a1.853,1.853,0,0,0,1.424-3.038,57.52,57.52,0,0,1-10.135-55.4,1.853,1.853,0,0,0-3.5-1.207,61.228,61.228,0,0,0,10.789,58.981A1.849,1.849,0,0,0,917.3,1323.371Z" transform="translate(-901.771 -1262.472)" fill="#fff"/>
      </g>
      <g id="Group_384" data-name="Group 384" transform="translate(43.832 28.194)">
        <path id="Path_222" data-name="Path 222" d="M835.139,1180.454a1.847,1.847,0,0,0,1.27-.5,57.094,57.094,0,0,1,19.769-12.182,1.853,1.853,0,1,0-1.264-3.484,60.775,60.775,0,0,0-21.046,12.967,1.853,1.853,0,0,0,1.271,3.2Z" transform="translate(-833.286 -1164.174)" fill="#fff"/>
      </g>
      <g id="Group_385" data-name="Group 385" transform="translate(84.459 24.657)">
        <path id="Path_223" data-name="Path 223" d="M755.862,1160.136a1.853,1.853,0,0,0,.452-3.65,61.354,61.354,0,0,0-15.007-1.856,1.853,1.853,0,1,0,0,3.706,57.667,57.667,0,0,1,14.1,1.743A1.845,1.845,0,0,0,755.862,1160.136Z" transform="translate(-739.454 -1154.63)" fill="#fff"/>
      </g>
    </g>
    <path id="Path_224" data-name="Path 224" d="M1990.305,646.4q0-1.437.079-2.855l-12.169-9.771a64.824,64.824,0,0,1,4.421-13.98l15.714-1.188a52.279,52.279,0,0,1,13.6-14.433l.052-15.658a64.852,64.852,0,0,1,13.932-5.375l10.738,11.558a52.248,52.248,0,0,1,19.311,1.515l12.314-9.753a65.229,65.229,0,0,1,13.025,7.554L2079,609.536a52.1,52.1,0,0,1,10.969,16.008l15.32,3.551a65.2,65.2,0,0,1,2.262,14.768l-13.492,7.8a51.662,51.662,0,0,1-5.771,19.067l6.755,14.15a65.66,65.66,0,0,1-9.927,10.8l-14.469-5.667a51.7,51.7,0,0,1-19.077,7.569l-6.82,14.042c-.812.03-1.628.05-2.448.05a65.671,65.671,0,0,1-11.964-1.1l-4.6-14.872a51.952,51.952,0,0,1-17.953-10.423l-15.207,3.417a65.4,65.4,0,0,1-8.1-11.965l8.814-12.946A51.918,51.918,0,0,1,1990.305,646.4Zm52.576,22.913a21.9,21.9,0,1,0-21.9-21.9A21.9,21.9,0,0,0,2042.882,669.312Z" transform="translate(-1978.215 -413.938)" fill="#f5f5f5"/>
  </g>
  <g id="Group_391" data-name="Group 391" transform="translate(146.134 55.562)">
    <g id="Group_388" data-name="Group 388" transform="translate(0 5.513)" opacity="0.8">
      <path id="Path_225" data-name="Path 225" d="M2767.779,336.561h18.826a13.2,13.2,0,0,0,13.184-13.184V304.551a13.2,13.2,0,0,0-13.184-13.184h-18.826a13.2,13.2,0,0,0-13.184,13.184v18.827A13.2,13.2,0,0,0,2767.779,336.561Zm18.826-40.006a8,8,0,0,1,8,8v18.827a8,8,0,0,1-8,8h-18.826a8.005,8.005,0,0,1-8-8V304.551a8.005,8.005,0,0,1,8-8Z" transform="translate(-2754.595 -291.367)" fill="#9ec8ff"/>
    </g>
    <g id="Group_389" data-name="Group 389" transform="translate(88.584 5.513)" opacity="0.8">
      <path id="Path_226" data-name="Path 226" d="M2528.744,336.561h18.826a13.2,13.2,0,0,0,13.184-13.184V304.551a13.2,13.2,0,0,0-13.184-13.184h-18.826a13.2,13.2,0,0,0-13.184,13.184v18.827A13.2,13.2,0,0,0,2528.744,336.561Zm18.826-40.006a8,8,0,0,1,8,8v18.827a8,8,0,0,1-8,8h-18.826a8,8,0,0,1-8-8V304.551a8,8,0,0,1,8-8Z" transform="translate(-2515.56 -291.367)" fill="#9ec8ff"/>
    </g>
    <g id="Group_390" data-name="Group 390" transform="translate(74.835)">
      <path id="Path_227" data-name="Path 227" d="M2552.952,316.238l-.107,0a2.225,2.225,0,0,1-1.658-.868l-13.531-17.65a2.224,2.224,0,0,1,3.53-2.706l11.933,15.565,31.154-33.379a2.223,2.223,0,1,1,3.251,3.034l-32.946,35.3A2.225,2.225,0,0,1,2552.952,316.238Z" transform="translate(-2510.197 -274.491)" fill="#fff"/>
    </g>
  </g>
  <rect id="Rectangle_19" data-name="Rectangle 19" width="288.52" height="10.751" rx="5.376" transform="translate(319.697 405.296)" fill="#fff"/>
  <g id="Group_396" data-name="Group 396" transform="translate(122.576 221.593)">
    <path id="Path_229" data-name="Path 229" d="M2493.017,797.936c-3.826,13.489,5.518,27.389,15.812,30.309s17.64-6.246,21.466-19.734-1.417-26.791-11.71-29.71S2496.844,784.448,2493.017,797.936Z" transform="translate(-2365.532 -758.322)" fill="#f09959"/>
    <path id="Path_230" data-name="Path 230" d="M2448.015,1536.709s-26.381,40.975-29.945,42.757-12.471,2.227-9.131,8.907,4.677,32.959,7.795,34.3,29.841,4.454,25.833,0-6.475-2.227-8.5-10.244-4.865-23.16-1.079-26.278,26.946-31.177,26.946-31.177Z" transform="translate(-2262.816 -1235.719)" fill="#f09959"/>
    <path id="Path_231" data-name="Path 231" d="M1951.572,1584.192s32.07,52.855,38.008,57.606,25.536,11.878,9.5,13.065-23.755-5.345-33.851-8.314-22.567-4.751-17.816-12.471,2.777-24.575-7.464-35.264S1951.572,1584.192,1951.572,1584.192Z" transform="translate(-1633.592 -1265.605)" fill="#f09959"/>
    <path id="Path_232" data-name="Path 232" d="M2050.866,1253.4s79.388-2.076,110.864,23.755c18.41,27.913,62.948,110.268,66.409,119.344-2.375,2.376-15.738,6.662-21.677,6.068-17.52-20.89-40.676-38.949-49.886-55.334-11.349-20.192-14.846-30.288-33.257-32.07s-59.981-7.72-72.454-7.72S2050.866,1253.4,2050.866,1253.4Z" transform="translate(-1896.54 -1057.372)" fill="#3a5a6e"/>
    <path id="Path_233" data-name="Path 233" d="M2618.737,1563.823h4.161l29.841-124.5h-9.155Z" transform="translate(-2533.64 -1174.422)" fill="#fff"/>
    <path id="Path_234" data-name="Path 234" d="M2412.515,1556.348h-4.162l-34.242-128.9h9.155Z" transform="translate(-2202.76 -1166.947)" fill="#fff"/>
    <path id="Path_235" data-name="Path 235" d="M2233.637,1238.789l46.156,7.967s61.335.564,89.371,5.786c25.507,4.751,29.266,33.733,0,73.641-16.625,22.67-30.681,40.754-59.425,61.144-7.312-5.369-10.109-7.4-12.13-20.316,2.081-2.852,7.466-20.706,9.137-24.2,15.9-33.235,37.122-45.321,37.416-48.591-3.564-5.79-94.383,30.181-112.441,9.021C2214.481,1283.038,2233.637,1238.789,2233.637,1238.789Z" transform="translate(-2124.539 -1048.204)" fill="#3a5a6e"/>
    <path id="Path_236" data-name="Path 236" d="M2505.72,955.935a48.3,48.3,0,0,1,36.115,8.987c10.117,10.314,21.566,27.322,20.865,55.377-.891,35.631,5.514,37.919-1.167,47.718-27.865,11.506-75.52,60.945-64.3,7.943,8.126-38.377-17.823-66.982,3.111-109.552C2502.049,962.943,2504.179,959.583,2505.72,955.935Z" transform="translate(-2398.538 -869.842)" fill="#ffaa2e"/>
    <path id="Path_237" data-name="Path 237" d="M2550.087,1048.827c.542,18.575,3.165,24.048,1.159,29.871-11.359,1.16-32.139,5.705-37.331,12.975-5.939,8.314-11.877,9.5-9.106,3.365s10.1-14.847-1.188-44.739-16.629-50.083-5.543-70.869Z" transform="translate(-2385.917 -884.96)" fill="#f89d18"/>
    <path id="Path_238" data-name="Path 238" d="M2553.441,892.918c7.486-17.72,9.324-37.629,9.324-37.629l19.6,5.79s-11.135,24.941-.446,33.849a102.05,102.05,0,0,1,7.64,6.977A48.3,48.3,0,0,0,2553.441,892.918Z" transform="translate(-2446.26 -806.825)" fill="#f09959"/>
    <path id="Path_239" data-name="Path 239" d="M2573.713,861.788c1.161-1.033,2.614-2.322,4.14-3.67l15.984,4.723.034.087c-.386.883-4.458,10.383-4.994,19.522-4.764-2.89-9.979-7.6-15.942-15.833C2573.259,864.79,2573.514,863.161,2573.713,861.788Z" transform="translate(-2457.798 -808.605)" fill="#e38540"/>
    <path id="Path_240" data-name="Path 240" d="M2306.77,970.914c20.184,7.059,17.946,28.323,36.521,59.682,9.614,16.229,18.542,15.987,18.542,15.987a430.056,430.056,0,0,0,49.818-3.154c17.077-2.088,18.16,3,6.283,7.242-23.953,8.564-48.811,17.782-68.853,15.555s-54.322-53.364-56.09-66.676C2290.549,981.14,2296.6,967.359,2306.77,970.914Z" transform="translate(-2185.811 -879.247)" fill="#f09959"/>
    <g id="Group_392" data-name="Group 392" transform="translate(78.689 135.596)">
      <path id="Path_241" data-name="Path 241" d="M2446.865,1224.9q1.882,0,3.858-.049a191.954,191.954,0,0,0,36.644-4.51c10.506-2.135,16.292-3.311,23.027-.093a5.188,5.188,0,0,0,4.474-9.363c-9.871-4.717-18.133-3.038-29.567-.714a182.813,182.813,0,0,1-34.835,4.306c-17.388.434-27.989-2.146-33.362-8.1-4.788-5.309-6.188-14.229-4.408-28.073.609-4.738,1.218-8.678,1.756-12.156,1.517-9.808,2.519-16.288,1.278-26.305-1.152-9.3-4.232-21.693-11.366-45.719a5.189,5.189,0,0,0-9.948,2.954c13.295,44.772,12.62,49.132,9.782,67.485-.548,3.538-1.167,7.548-1.793,12.418-2.2,17.071.027,28.62,6.994,36.346C2416.572,1221.276,2428.215,1224.9,2446.865,1224.9Z" transform="translate(-2394.199 -1090.406)" fill="#fff"/>
    </g>
    <path id="Path_242" data-name="Path 242" d="M1940.237,1704.4c21.279,10.407,32.732,16.371,39.553,15.8,1.611-.134,2.946-.3,4.065-.473,7.588,4.485,19.7,9.785,6.072,10.795-16.035,1.187-23.755-5.345-33.851-8.315s-22.567-4.751-17.816-12.471A16.239,16.239,0,0,0,1940.237,1704.4Z" transform="translate(-1624.437 -1341.265)" fill="#3a5a6e"/>
    <path id="Path_243" data-name="Path 243" d="M2461.519,1654.431c.52,16.848,2.835,33.542,13.139,36.7a17.318,17.318,0,0,0,7.425.662c1.62,2,3.6,2.026,6.252,4.976,4.008,4.454-22.715,1.336-25.833,0s-4.454-27.615-7.795-34.3C2451.964,1656.981,2457.485,1655.7,2461.519,1654.431Z" transform="translate(-2308.584 -1309.814)" fill="#3a5a6e"/>
    <g id="Group_393" data-name="Group 393" transform="translate(229.71 116.005)">
      <path id="Path_244" data-name="Path 244" d="M2041.318,1106.713h67.6a5.187,5.187,0,0,0,4.7-3l27.319-58.794a5.188,5.188,0,0,0-9.411-4.372l-25.923,55.792h-64.291a5.188,5.188,0,0,0,0,10.376Z" transform="translate(-2036.13 -1037.542)" fill="#3a5a6e"/>
    </g>
    <path id="Path_245" data-name="Path 245" d="M2193.228,1156.783c13.659-.2,27.206-8.339,33.936-7.152s28.7,16.431,25.933,17.025-20.192-8.436-20.786-8.573-4.355,6.253-13.659,8.6-.066-6.973-28.906,1.737C2170.993,1174.085,2193.228,1156.783,2193.228,1156.783Z" transform="translate(-1972.472 -992.013)" fill="#f09959"/>
    <path id="Path_246" data-name="Path 246" d="M2522.715,913.192l-2.01,16.171s17.676,1.052,26.471,6,21.776,19.248,21.776,19.248l-10.6-18.258-1.527-11.68Z" transform="translate(-2413.523 -843.269)" fill="#f2e5de"/>
    <path id="Path_247" data-name="Path 247" d="M2359.937,966.06c13.129-2.46,19.2,9.3,27.714,28.506s23.043,42.524,25.933,45.531,48.7,0,48.7,0,1.385,13.263,0,14.847-9.3,1.385-9.3,1.385-3.167,2.529-6.136,4.531-28.109,5.763-39.79,5.169-22.369-1.583-23.953-3.365-33.455-50.875-35.435-68.494S2353.237,967.316,2359.937,966.06Z" transform="translate(-2243.223 -876.342)" fill="#f2e5de"/>
    <path id="Path_248" data-name="Path 248" d="M2516.943,733.463c24.831,1.188,20.936,38.541,20.936,38.541s-6.449,1.991-19.959-.236c1.039-4.009.594-14.253.594-14.253a93.334,93.334,0,0,1-3.563,13.363c-2.856,1.309-6.087.148-11.581-1.179-2.821,11.869-10.792,16.884-16.25,18.6-6.031,1.9-12.414,4.157-19.54.594s-3.208-39.988.577-47.312c5.68-10.995,15.121-20.835,31.452-15.639A121.294,121.294,0,0,1,2516.943,733.463Z" transform="translate(-2361.514 -724.512)" fill="#303c60"/>
    <path id="Path_249" data-name="Path 249" d="M2747.07,863.836l-10.151,14.828s11.25,28.11-21.471,40.846c-25.626,9.974-22.608,27.548-11.028,45.222s-6.928,33.108-6.928,33.108-2.823-19.578-27.722-23.274c-33.95-5.039-43.563-50.62-18.205-73.411,20.984-18.86,27.368-3.241,41.572-20.166s41.018-5.492,41.018-5.492l9.827-14.332Z" transform="translate(-2634.82 -810.522)" fill="#303c60"/>
    <g id="Group_394" data-name="Group 394" transform="translate(0 58.515)">
      <path id="Path_250" data-name="Path 250" d="M2674.7,960.443a.9.9,0,0,0,.792-1.337c-8.537-15.6-1.571-34.5,1.932-39.622.372-.543.724-1.093,1.1-1.675,3.442-5.374,7.726-12.061,30.586-16.176,5.505-.991,9.962-4.263,14.682-7.728,9.748-7.156,20.8-15.267,44.8-4.218a.9.9,0,1,0,.754-1.64c-24.97-11.494-36.475-3.048-46.625,4.4-4.546,3.337-8.84,6.489-13.934,7.406-23.634,4.255-28.154,11.31-31.786,16.979-.366.57-.71,1.109-1.066,1.629-3.671,5.364-10.969,25.166-2.027,41.509A.9.9,0,0,0,2674.7,960.443Z" transform="translate(-2669.637 -882.409)" fill="#303c60"/>
    </g>
    <g id="Group_395" data-name="Group 395" transform="translate(105.162 33.19)">
      <path id="Path_251" data-name="Path 251" d="M2563.515,849.389a35.743,35.743,0,0,0,5.273-.424c8.687-1.3,20.341-6.238,21.255-33.961a.9.9,0,1,0-1.8-.059c-.377,11.427-2.644,19.882-6.738,25.129-3.11,3.987-7.235,6.244-12.98,7.105-8.038,1.2-13.368-.28-15.837-4.412a.9.9,0,0,0-1.55.927C2553.4,847.482,2557.552,849.389,2563.515,849.389Z" transform="translate(-2551.006 -814.071)" fill="#303c60"/>
    </g>
  </g>
  <path id="Path_252" data-name="Path 252" d="M1743.956,1438.353h-6.671l-25.952-198.376h14.677Z" transform="translate(-1166.007 -827.359)" fill="#fff"/>
  <path id="Path_253" data-name="Path 253" d="M2234.155,1438.353h6.671l25.952-198.376H2252.1Z" transform="translate(-1882.58 -827.359)" fill="#fff"/>
  <g id="Group_397" data-name="Group 397" transform="translate(0 397.333)">
    <path id="Path_254" data-name="Path 254" d="M3022.6,1323.431c-11.542,10.538-6.523,21.076,2.008,40.647s10.036,91.834,10.036,91.834l-7.026-1s1-74.27-8.531-94.343-13.549-30.109-22.08-23.586S3022.6,1323.431,3022.6,1323.431Z" transform="translate(-2932.642 -1277.219)" fill="#74b570"/>
    <path id="Path_255" data-name="Path 255" d="M3105.643,1231.3c-1.4-6.245-9.726-13-20.858-18.735,1.656,9.211,6.962,24.272,1.47,27.361-7.406,4.166-.722-16.861-3.58-28.42a137.539,137.539,0,0,0-34.605-11.352c.017.043.029.084.046.127,6.524,16.56,15.055,23.084,11.542,25.594-2.643,1.887-11.251-17.242-22.618-27.048-8.531-.455-15.75.7-20.02,4.083-6.6,5.224-11.03,9.86-4.392,25.771a29.826,29.826,0,0,0,14.411,5.223c15.055,1.5,22.081,2.007,11.542,7.026-5.161,2.457-13.81-.139-20.825-1.72,2.276,4.193,5.072,8.937,8.471,14.342a53.276,53.276,0,0,0,7.053,8.976c4.853.93,9.082.94,11.322-.02,7.025-3.011,25.091-12.545,29.608-8.531,4.421,3.929-33.458,6.418-30.833,16.4,18.36,10.578,39.369,5.545,43.083-4.168C3091.449,1253.168,3109.864,1250.1,3105.643,1231.3Z" transform="translate(-3009.345 -1198.733)" fill="#9cd499"/>
    <path id="Path_256" data-name="Path 256" d="M2960.172,1468.248c20.073-15.055,40.647-1,51.186,15.054s3.011,52.19,3.011,52.19-4.015,0-4.015-1.5,11.041-42.655-15.055-61.223c-16.325-11.616-28.1-6.022-29.608-.5s6.524,15.556,6.524,15.556Z" transform="translate(-2901.83 -1364.326)" fill="#74b570"/>
    <path id="Path_257" data-name="Path 257" d="M3009.416,1395.649c-20.073,0-26.6,31.114-21.077,49.179s13.048,51.688,13.048,51.688l5.018-5.019s-19.069-47.171-14.554-68.248,15.557-24.59,17.564-24.59S3009.416,1395.649,3009.416,1395.649Z" transform="translate(-2904.905 -1322.674)" fill="#9cd499"/>
    <path id="Path_258" data-name="Path 258" d="M3025.988,1521.191a14.536,14.536,0,0,0-5.284-4.44,39.724,39.724,0,0,0,1.043,4.3c2.516,8.231,5.446,19.69,7.894,29.729.223-1.286.565-3.266,1.094-6.323.125-.722.223-1.505.291-2.335A194.619,194.619,0,0,1,3025.988,1521.191Z" transform="translate(-2938.313 -1398.897)" fill="#74b570"/>
    <path id="Path_259" data-name="Path 259" d="M3094.659,1481.084c-38.139-16.058-18.045-38.095-51.668-23.542-2.368,1.026-5.254,3.61-8.144,7.175a25.031,25.031,0,0,0,10.653.855c10.037-1.505,6.524,6.524-10.036,8.531a37.182,37.182,0,0,0-7.761,1.637c-7.889,15.153-11.445,35.091,5.251,42.022a37.814,37.814,0,0,0,11.883,2.438c5.152-4.095-1.258-27.79,6.685-24.519,7.626,3.14-2.389,20.313-1.017,24.639a110,110,0,0,0,23.825-3.339c3.152-1.766,5.557-4.134,6.3-7.248,2.509-10.538-14.051-17.062-14.553-26.095-.461-8.3,6.071,18.269,23.373,22.18C3105.094,1498.509,3112.487,1488.591,3094.659,1481.084Z" transform="translate(-3012.473 -1358.639)" fill="#9cd499"/>
    <path id="Path_260" data-name="Path 260" d="M2827.4,1390.736c-4.015-8.531,6.523-10.538,6.022-4.015-.445,5.78-.494,19.832,5.435,23.658a93.024,93.024,0,0,0,34.652-11.508,4.263,4.263,0,0,0-.443-2.616c-4.516-9.033-33.622-16.56-24.589-19.571,7.193-2.4,19.8,11.756,29.957,18.885,6.1-4.629,10.189-10.146,10.189-16.306,0-8.337-10.13-17.774-23.23-22.284-5.9.594-11.372,3.818-19.927,8.665-12.636,7.161-9.715-4.417,2.234-11.288a35.991,35.991,0,0,0-28.183,15.47s.718,4.5-4.045,11.461c-12.994,18.991,2,30.077,19.927,29.357C2834.384,1405.638,2830.174,1396.63,2827.4,1390.736Z" transform="translate(-2718.039 -1296.684)" fill="#9cd499"/>
    <path id="Path_261" data-name="Path 261" d="M3143.1,1476.642c-9.814,7.583-20.715,16.45-34.1,22.472s-10.706,25.65-10.706,25.65-2.008-16.952,9.145-22.751,18.512-12.713,26.988-14.052a122.889,122.889,0,0,0,13.16-2.676s-2.677-5.353-1.116-7.361S3143.1,1476.642,3143.1,1476.642Z" transform="translate(-3083.547 -1373.572)" fill="#74b570"/>
    <path id="Path_262" data-name="Path 262" d="M3046.315,1236.565c35.911,9.59,62.23,32.564,67.136,38.14s4.907,7.137,4.907,7.137l-3.792,7.138-1.784-.892s2.9-6.022-4.684-13.829c-13.078-13.462-29-24.088-39.926-28.772S3046.315,1236.565,3046.315,1236.565Z" transform="translate(-3035.138 -1222.545)" fill="#74b570"/>
    <path id="Rectangle_20" data-name="Rectangle 20" d="M0,0H49.049a0,0,0,0,1,0,0V24.662A24.524,24.524,0,0,1,24.524,49.186h0A24.524,24.524,0,0,1,0,24.662V0A0,0,0,0,1,0,0Z" transform="translate(78.917 163.604)" fill="#ffaa2e"/>
    <rect id="Rectangle_21" data-name="Rectangle 21" width="49.049" height="3.453" transform="translate(78.917 169.239)" fill="#fff"/>
    <rect id="Rectangle_22" data-name="Rectangle 22" width="49.049" height="2.031" transform="translate(78.917 175.535)" fill="#fff"/>
  </g>
  <g id="Group_399" data-name="Group 399" transform="translate(11.471 204.638)">
    <path id="Rectangle_26" data-name="Rectangle 26" d="M9.294,0h2.066a9.294,9.294,0,0,1,9.294,9.294v0a9.294,9.294,0,0,1-9.294,9.294H9.293A9.293,9.293,0,0,1,0,9.3v0A9.294,9.294,0,0,1,9.294,0Z" transform="translate(18.588 0) rotate(90)" fill="#fff"/>
    <path id="Rectangle_27" data-name="Rectangle 27" d="M9.294,0h2.065a9.295,9.295,0,0,1,9.295,9.295v0a9.293,9.293,0,0,1-9.293,9.293H9.293A9.293,9.293,0,0,1,0,9.295v0A9.294,9.294,0,0,1,9.294,0Z" transform="translate(18.588 37.552) rotate(90)" fill="#fff"/>
    <path id="Rectangle_28" data-name="Rectangle 28" d="M9.293,0h2.065a9.295,9.295,0,0,1,9.295,9.295v0a9.293,9.293,0,0,1-9.293,9.293H9.293A9.293,9.293,0,0,1,0,9.295v0A9.293,9.293,0,0,1,9.293,0Z" transform="translate(18.588 75.103) rotate(90)" fill="#fff"/>
  </g>
</svg>
